:SAMPLES-PER-SECOND 30
:FULLY-SPECIFIED
:DEGREES
351
root  32.9664 38.7671 -2.83909 172.942 31.8087 179.806
RightUpLeg  -4.95047 -23.2241 -4.12559
RightLeg  30.1742 -0.62771 -0.655035
RightFoot  -15.0228 -0.152561 -1.59407
RightToes  0.00048216 0.542163 -0.142577
Spine  22.935 -0.334685 14.728
Spine1  9.75917 4.27308 -6.83344
HEad  -20.8245 59.4976 -37.7241
LeftShoulder1  9.4256 -14.0895 -46.7453
LeftArm  -15.4736 20.0112 -24.9275
LeftForeArm  74.8964 -79.3402 -87.0226
LeftHand  -0.25398 0.0180481 5.50724
RightShoulder  4.72506 9.08401 31.5926
RightArm  -10.4964 -21.943 22.0175
RightForeArm  50.1442 77.5365 103.317
RightHand  0.187012 -18.8766 -2.67629
LeftUpLeg  -13.6283 0.284728 -2.47561
LeftLeg  -1.18928 6.90761 -6.57413
LeftFoot  9.05648 1.82849 -10.4832
LeftToes  1.06243e-005 4.65856e-005 -8.18503e-006
352
root  32.2867 39.2388 -2.45396 173.415 26.3224 179.184
RightUpLeg  -4.28384 -26.4927 -5.50727
RightLeg  26.1306 -2.06046 -1.3667
RightFoot  -12.028 -0.0877781 -1.13528
RightToes  0.00048216 0.542163 -0.142577
Spine  21.2683 -0.0292375 14.0729
Spine1  9.51159 4.39109 -7.28267
HEad  -19.6064 58.442 -36.0127
LeftShoulder1  9.47868 -14.167 -46.8041
LeftArm  -14.9235 20.8047 -24.7146
LeftForeArm  73.3591 -79.3265 -85.3316
LeftHand  -0.25398 0.0180481 5.50724
RightShoulder  4.67479 9.04211 31.3152
RightArm  -10.7113 -24.1953 22.531
RightForeArm  52.8375 77.3645 106.252
RightHand  0.294567 -19.0232 -3.53199
LeftUpLeg  -13.2917 3.26078 -3.12823
LeftLeg  2.41845 9.197 -5.54249
LeftFoot  5.98954 1.13799 -7.72613
LeftToes  1.06243e-005 4.65856e-005 -8.18503e-006
353
root  31.6119 39.6421 -2.15751 173.964 21.078 178.441
RightUpLeg  -3.13021 -28.0276 -7.43562
RightLeg  21.9357 -5.13027 -1.43322
RightFoot  -9.35164 -0.0593126 -0.317898
RightToes  0.00048216 0.542163 -0.142577
Spine  19.8149 0.297849 12.9255
Spine1  8.91626 4.46036 -7.65698
HEad  -18.2981 57.0309 -33.9877
LeftShoulder1  9.41852 -14.1477 -46.5511
LeftArm  -14.7427 22.1327 -24.5364
LeftForeArm  74.677 -79.3433 -86.6331
LeftHand  -0.25398 0.0180481 5.50724
RightShoulder  4.64454 9.04273 31.0698
RightArm  -10.3306 -26.4825 23.0394
RightForeArm  55.3386 77.1452 109.231
RightHand  0.425954 -19.4966 -4.47738
LeftUpLeg  -13.4699 9.04007 -3.95609
LeftLeg  6.97595 6.41628 -3.55316
LeftFoot  3.14312 0.726602 -5.8541
LeftToes  1.06243e-005 4.65856e-005 -8.18503e-006
354
root  30.9363 39.9243 -1.94621 174.722 16.3385 177.778
RightUpLeg  -1.89774 -23.3306 -9.60851
RightLeg  18.3692 -14.0737 -0.79371
RightFoot  -7.64515 -0.101201 1.54638
RightToes  0.00048216 0.542163 -0.142577
Spine  18.4158 0.812068 11.5653
Spine1  8.10592 4.65365 -7.86431
HEad  -17.0038 55.3959 -31.7788
LeftShoulder1  9.2541 -14.0025 -46.1054
LeftArm  -14.7337 23.5657 -24.3875
LeftForeArm  78.1127 -79.3628 -90.0587
LeftHand  -0.25398 0.0180481 5.50724
RightShoulder  4.61974 9.0163 30.9488
RightArm  -9.64933 -28.7188 23.4904
RightForeArm  57.8117 76.9165 111.915
RightHand  0.48796 -19.9147 -4.84717
LeftUpLeg  -14.0194 13.9869 -4.04762
LeftLeg  11.1997 2.89568 -1.10755
LeftFoot  0.936262 0.35469 -3.35947
LeftToes  1.06243e-005 4.65856e-005 -8.18503e-006
355
root  30.2212 40.0884 -1.83662 175.833 12.2142 177.449
RightUpLeg  -1.30381 -18.6337 -11.2534
RightLeg  15.9173 -22.1903 -0.0801401
RightFoot  -7.07062 -0.194131 3.95303
RightToes  0.00048216 0.542163 -0.142577
Spine  16.5524 1.5246 10.5586
Spine1  7.69991 5.11521 -7.98364
HEad  -15.7216 53.4876 -29.3352
LeftShoulder1  9.07351 -13.824 -45.657
LeftArm  -14.8606 24.6348 -24.2969
LeftForeArm  81.8051 -79.3428 -93.7336
LeftHand  -0.25398 0.0180481 5.50724
RightShoulder  4.64385 9.03796 31.0783
RightArm  -9.22218 -30.8024 23.8866
RightForeArm  60.7048 76.6568 114.641
RightHand  0.4737 -19.893 -4.74211
LeftUpLeg  -14.3465 14.9184 -2.22397
LeftLeg  14.3955 2.79724 0.904604
LeftFoot  -0.59193 0.169529 -1.78722
LeftToes  1.06243e-005 4.65856e-005 -8.18503e-006
356
root  29.4246 40.1558 -1.81408 177.026 8.56479 177.5
RightUpLeg  -0.931221 -16.7288 -12.5889
RightLeg  14.2131 -26.8053 0.544946
RightFoot  -6.92267 -0.288631 6.24769
RightToes  0.00048216 0.542163 -0.142577
Spine  14.4163 2.2108 10.0013
Spine1  7.75367 5.69031 -8.18998
HEad  -14.5923 51.3748 -27.3471
LeftShoulder1  8.89079 -13.6267 -45.2373
LeftArm  -15.3557 25.397 -24.4349
LeftForeArm  85.1293 -79.2897 -97.0044
LeftHand  -0.25398 0.0180481 5.50724
RightShoulder  4.72845 9.14395 31.44
RightArm  -9.14829 -32.3733 24.285
RightForeArm  63.2165 76.4199 116.862
RightHand  0.439495 -19.6928 -4.53257
LeftUpLeg  -14.1932 13.6008 1.19588
LeftLeg  16.7648 4.50593 1.87689
LeftFoot  -1.47923 0.137325 -1.49365
LeftToes  1.06243e-005 4.65856e-005 -8.18503e-006
357
root  28.5405 40.1591 -1.82595 177.95 5.13525 177.652
RightUpLeg  -0.261021 -16.4207 -13.9825
RightLeg  12.6162 -29.7034 1.10828
RightFoot  -6.33683 -0.405831 8.26646
RightToes  0.00048216 0.542163 -0.142577
Spine  12.7118 2.63468 9.41106
Spine1  7.69667 6.05079 -8.53615
HEad  -13.9254 49.7188 -25.9255
LeftShoulder1  8.68226 -13.3409 -44.9127
LeftArm  -16.3667 26.1167 -24.7408
LeftForeArm  88.3937 -79.2129 -100.097
LeftHand  -0.25398 0.0180481 5.50724
RightShoulder  4.81024 9.22035 31.8612
RightArm  -9.15423 -33.0353 24.8359
RightForeArm  64.1809 76.3471 117.537
RightHand  0.424756 -19.6539 -4.42722
LeftUpLeg  -13.6379 13.9152 4.56517
LeftLeg  17.6852 4.99246 2.12073
LeftFoot  -2.03364 0.0603529 -0.578998
LeftToes  1.06243e-005 4.65856e-005 -8.18503e-006
358
root  27.5708 40.1489 -1.85037 178.644 1.62756 177.661
RightUpLeg  0.695947 -16.6004 -15.5938
RightLeg  10.9017 -31.9353 1.62688
RightFoot  -5.2455 -0.548992 9.62816
RightToes  0.00048216 0.542163 -0.142577
Spine  11.5415 2.71356 8.58004
Spine1  7.38519 6.04008 -8.94914
HEad  -13.5265 48.6032 -24.8626
LeftShoulder1  8.49829 -12.9985 -44.8714
LeftArm  -17.6396 26.6726 -24.8961
LeftForeArm  90.6147 -79.1502 -102.111
LeftHand  -0.25398 0.0180481 5.50724
RightShoulder  4.8492 9.18025 32.2896
RightArm  -9.04594 -32.7956 25.4199
RightForeArm  63.6748 76.447 116.757
RightHand  0.444719 -19.5099 -4.62234
LeftUpLeg  -12.5973 16.415 7.05698
LeftLeg  16.5629 6.91825 2.56377
LeftFoot  -2.9353 -0.0807153 1.35027
LeftToes  1.06243e-005 4.65856e-005 -8.18503e-006
359
root  26.4972 40.1469 -1.92298 179.4 -2.08652 177.598
RightUpLeg  1.86906 -16.7238 -17.2988
RightLeg  8.81816 -33.431 2.32656
RightFoot  -3.97978 -0.678472 10.1068
RightToes  0.00048216 0.542163 -0.142577
Spine  10.2046 2.60627 7.88521
Spine1  7.38341 5.858 -9.3782
HEad  -12.7429 47.5689 -23.9764
LeftShoulder1  8.40258 -12.738 -45.0848
LeftArm  -18.6001 26.74 -24.8557
LeftForeArm  90.0804 -79.1751 -101.515
LeftHand  -0.25398 0.0180481 5.50724
RightShoulder  4.87098 9.07813 32.773
RightArm  -8.71148 -32.0977 25.459
RightForeArm  62.7034 76.5323 115.967
RightHand  0.516902 -18.9149 -5.39033
LeftUpLeg  -11.0359 19.6116 8.82428
LeftLeg  14.2508 14.8728 3.4256
LeftFoot  -3.78906 -0.128731 2.2618
LeftToes  1.06243e-005 4.65856e-005 -8.18503e-006
360
root  25.2691 40.1088 -2.0889 -179.614 -6.04193 177.365
RightUpLeg  3.47312 -16.9746 -19.348
RightLeg  6.22648 -34.2326 3.3498
RightFoot  -2.68723 -0.835492 10.7478
RightToes  0.00048216 0.542163 -0.142577
Spine  8.02813 2.48477 7.48238
Spine1  8.1222 5.70539 -9.83795
HEad  -11.0701 46.2793 -22.9605
LeftShoulder1  8.35414 -12.6003 -45.2125
LeftArm  -18.7045 26.3479 -24.9603
LeftForeArm  87.3528 -79.2667 -98.7564
LeftHand  -0.25398 0.0180481 5.50724
RightShoulder  4.88093 8.9921 33.1183
RightArm  -8.00924 -31.4694 24.5189
RightForeArm  61.7585 76.4529 116.351
RightHand  0.6442 -18.1033 -6.79928
LeftUpLeg  -9.24783 20.9671 10.1626
LeftLeg  12.6681 29.3034 3.40684
LeftFoot  -3.19989 -0.0186096 0.6191
LeftToes  1.06243e-005 4.65856e-005 -8.18503e-006
361
root  23.8644 39.9799 -2.32888 -178.623 -10.4952 176.486
RightUpLeg  5.66632 -17.6357 -22.3964
RightLeg  4.22223 -34.5732 3.9551
RightFoot  -2.0639 -1.0135 12.318
RightToes  0.00048216 0.542163 -0.142577
Spine  5.51963 2.29393 6.66376
Spine1  9.16097 5.3754 -9.83749
HEad  -8.71984 44.6717 -21.5999
LeftShoulder1  8.27095 -12.492 -45.059
LeftArm  -17.722 25.6906 -25.3214
LeftForeArm  85.0342 -79.3412 -96.1632
LeftHand  -0.25398 0.0180481 5.50724
RightShoulder  4.83431 8.91264 32.9929
RightArm  -7.06371 -31.3003 22.94
RightForeArm  60.7788 76.2228 117.767
RightHand  0.796912 -17.4267 -8.54607
LeftUpLeg  -7.99816 23.2791 9.84187
LeftLeg  12.6854 38.8391 2.14631
LeftFoot  -1.2193 0.228527 -2.50566
LeftToes  1.06243e-005 4.65856e-005 -8.18503e-006
